
<svg xmlns="http://www.w3.org/2000/svg" version="1.1" xmlns:xlink="http://www.w3.org/1999/xlink" preserveAspectRatio="none" x="0px" y="0px" width="1280px" height="720px" viewBox="0 0 1280 720">
<defs>
<image id="FL_94e38367f4e3b6772845bc9927d9ee72_jpg" x="0" y="0" width="563" height="375" xlink:href="./изображения/FL_94e38367f4e3b6772845bc9927d9ee72_jpg.jpg"/>

<image id="pngwing_com__8__png" x="0" y="0" width="1833" height="1242" xlink:href="./изображения/pngwing_com__8__png.png"/>

<image id="______________________1" x="0" y="0" width="180" height="90" xlink:href="./изображения/______________________1.png"/>

<image id="______________________2" x="0" y="0" width="258" height="455" xlink:href="./изображения/______________________2.png"/>

<g id="_______1_0_Layer0_0_FILL">
<path fill="#000000" stroke="none" d="
M 411.15 427.8
L 410.05 426.95 410.05 427.05 411.15 427.8 Z"/>
</g>

<g id="_________3_0_Layer0_0_FILL">
<path fill="#000000" stroke="none" d="
M -14.8 -41.4
Q -14.7 -37.65 -15.3 -34.85 -17.5 -24.85 -28.35 -24.8 -26.4 -19.4 -26.8 -16.3 -27.4 -12.8 -32.4 -13.1
L -28.95 -10.7
Q -28.55 -10.1 -28.3 -9.65 -26.5 -6.15 -25.75 -1.9 -24.65 2.9 -25.45 6.15 -25.55 6.4 -25.6 6.7 -25.85 7.55 -29 13.1 -25.05 11.65 -28.75 13.15 -21.3 14.3 -20.6 14.55 -17.35 16.15 -14.25 19.05 -11.9 21.1 -11.15 26.5
L -8.9 25.6
Q -5.9 24.6 -4.15 25.6 -0.75 27.45 1.35 29.75 2.1 30 6.4 33.5 11.9 20.75 27.1 27.1
L 23.3 21.9
Q 21.9 19.75 21.15 19.05 20.45 18.35 17.95 15.25 15.45 12.3 8.25 10.85 0.35 10.9 -4.55 9.15 -2.65 9.1 -0.5 7.6 -0.4 7.55 -0.35 7.45 1.15 6.1 1.65 3.65 1.75 3.1 1.85 2.5 1.75 2.5 1.7 2.5 -1.9 4.2 -4.65 1.3
L -4.7 1.25
Q -6.3 -1.8 -2.6 -5.05 -9.45 -7.1 -12.1 -3.35 -11.45 -7.1 -9.1 -11.95 -8.6 -12.3 -8.3 -14.9 -8.1 -17.5 -8.05 -22.2 -7.9 -26.9 -8.5 -27.8
L -11.45 -34.1 -14.8 -41.4 Z"/>
</g>

<path id="Layer5_0_1_STROKES" stroke="#000000" stroke-width="4" stroke-linejoin="round" stroke-linecap="butt" fill="none" d="
M 217.3 329.5
Q 183.279296875 498.9189453125 192.6 453.4"/>

<path id="_______1_0_Layer0_0_1_STROKES" stroke="#000000" stroke-width="1" stroke-linejoin="round" stroke-linecap="round" fill="none" d="
M 410.05 426.95
L 411.15 427.8 410.05 427.05"/>
</defs>

<g transform="matrix( 2.275665283203125, 0, 0, 2.048065185546875, -2,0) ">
<use xlink:href="#FL_94e38367f4e3b6772845bc9927d9ee72_jpg"/>
</g>

<g transform="matrix( -0.3331298828125, 0, 0, 0.32464599609375, 603.65,0) ">
<use xlink:href="#pngwing_com__8__png"/>
</g>

<g transform="matrix( 1, 0, 0, 1, 0,0) ">
<use xlink:href="#Layer5_0_1_STROKES"/>
</g>

<g transform="matrix( 1, 0, 0, 1, 145.15,271.25) ">
<g transform="matrix( 1, 0, 0, 1, 0,0) ">
<use xlink:href="#_______1_0_Layer0_0_FILL"/>

<use xlink:href="#_______1_0_Layer0_0_1_STROKES"/>
</g>

<g transform="matrix( 1, 0, 0, 1, 0,0) ">
<use xlink:href="#______________________1"/>
</g>
</g>

<g transform="matrix( 1, 0, 0, 1, 752.05,145.6) ">
<g transform="matrix( 1, 0, 0, 1, 0,0) ">
<use xlink:href="#_________3_0_Layer0_0_FILL"/>
</g>
</g>

<g transform="matrix( 1.09521484375, 0, 0, 1.09521484375, 309.1,723.55) ">
<g transform="matrix( 1.2694549560546875, 0, 0, 1.2694549560546875, 0,0) ">
<use xlink:href="#______________________2"/>
</g>
</g>
</svg>
